<mxfile host="app.diagrams.net" modified="2022-10-07T01:01:01.632Z" agent="5.0 (Windows NT 10.0; Win64; x64) AppleWebKit/537.36 (KHTML, like Gecko) Chrome/106.0.0.0 Safari/537.36" etag="fR2WnxnnVF1Iy-0w1k-x" version="20.4.0" type="github">
  <diagram id="prtHgNgQTEPvFCAcTncT" name="Page-1">
    <mxGraphModel dx="1422" dy="794" grid="1" gridSize="10" guides="1" tooltips="1" connect="1" arrows="1" fold="1" page="1" pageScale="1" pageWidth="827" pageHeight="1169" math="0" shadow="0">
      <root>
        <mxCell id="0" />
        <mxCell id="1" parent="0" />
        <mxCell id="ENleQokS9vP9XJO434Xc-15" style="edgeStyle=orthogonalEdgeStyle;rounded=0;orthogonalLoop=1;jettySize=auto;html=1;exitX=0.5;exitY=1;exitDx=0;exitDy=0;entryX=0.5;entryY=0;entryDx=0;entryDy=0;" edge="1" parent="1" source="ENleQokS9vP9XJO434Xc-1" target="ENleQokS9vP9XJO434Xc-6">
          <mxGeometry relative="1" as="geometry" />
        </mxCell>
        <mxCell id="ENleQokS9vP9XJO434Xc-1" value="&lt;b&gt;Flávia Rosário&lt;/b&gt;&amp;nbsp;&lt;br&gt;CMO" style="rounded=0;whiteSpace=wrap;html=1;" vertex="1" parent="1">
          <mxGeometry x="230" y="150" width="130" height="50" as="geometry" />
        </mxCell>
        <mxCell id="ENleQokS9vP9XJO434Xc-16" style="edgeStyle=orthogonalEdgeStyle;rounded=0;orthogonalLoop=1;jettySize=auto;html=1;exitX=0.5;exitY=1;exitDx=0;exitDy=0;entryX=0.5;entryY=0;entryDx=0;entryDy=0;" edge="1" parent="1" source="ENleQokS9vP9XJO434Xc-2" target="ENleQokS9vP9XJO434Xc-4">
          <mxGeometry relative="1" as="geometry" />
        </mxCell>
        <mxCell id="ENleQokS9vP9XJO434Xc-2" value="&lt;b&gt;Leonardo Mendes&lt;/b&gt;&amp;nbsp;&lt;br&gt;CTO" style="rounded=0;whiteSpace=wrap;html=1;" vertex="1" parent="1">
          <mxGeometry x="590" y="150" width="130" height="50" as="geometry" />
        </mxCell>
        <mxCell id="ENleQokS9vP9XJO434Xc-22" style="edgeStyle=orthogonalEdgeStyle;rounded=0;orthogonalLoop=1;jettySize=auto;html=1;exitX=0.5;exitY=1;exitDx=0;exitDy=0;entryX=1;entryY=0.5;entryDx=0;entryDy=0;" edge="1" parent="1" source="ENleQokS9vP9XJO434Xc-3" target="ENleQokS9vP9XJO434Xc-5">
          <mxGeometry relative="1" as="geometry" />
        </mxCell>
        <mxCell id="ENleQokS9vP9XJO434Xc-3" value="&lt;b&gt;Aline Bros&amp;nbsp;&lt;/b&gt;&lt;br&gt;Team Lead - TechOps" style="rounded=0;whiteSpace=wrap;html=1;" vertex="1" parent="1">
          <mxGeometry x="590" y="350" width="130" height="50" as="geometry" />
        </mxCell>
        <mxCell id="ENleQokS9vP9XJO434Xc-17" style="edgeStyle=orthogonalEdgeStyle;rounded=0;orthogonalLoop=1;jettySize=auto;html=1;exitX=0.5;exitY=1;exitDx=0;exitDy=0;entryX=0.5;entryY=0;entryDx=0;entryDy=0;" edge="1" parent="1" source="ENleQokS9vP9XJO434Xc-4" target="ENleQokS9vP9XJO434Xc-3">
          <mxGeometry relative="1" as="geometry" />
        </mxCell>
        <mxCell id="ENleQokS9vP9XJO434Xc-4" value="&lt;b&gt;Pierre-Marie Lévêque&lt;/b&gt;&lt;br&gt;Group Manager - Dados" style="rounded=0;whiteSpace=wrap;html=1;" vertex="1" parent="1">
          <mxGeometry x="590" y="240" width="130" height="50" as="geometry" />
        </mxCell>
        <mxCell id="ENleQokS9vP9XJO434Xc-5" value="&lt;b&gt;Bruna Freitas&amp;nbsp;&lt;/b&gt;&lt;br&gt;Techops - BizDev" style="rounded=0;whiteSpace=wrap;html=1;" vertex="1" parent="1">
          <mxGeometry x="410" y="480" width="130" height="55" as="geometry" />
        </mxCell>
        <mxCell id="ENleQokS9vP9XJO434Xc-18" style="edgeStyle=orthogonalEdgeStyle;rounded=0;orthogonalLoop=1;jettySize=auto;html=1;exitX=0.25;exitY=1;exitDx=0;exitDy=0;" edge="1" parent="1" source="ENleQokS9vP9XJO434Xc-6" target="ENleQokS9vP9XJO434Xc-8">
          <mxGeometry relative="1" as="geometry" />
        </mxCell>
        <mxCell id="ENleQokS9vP9XJO434Xc-19" style="edgeStyle=orthogonalEdgeStyle;rounded=0;orthogonalLoop=1;jettySize=auto;html=1;exitX=0.75;exitY=1;exitDx=0;exitDy=0;" edge="1" parent="1" source="ENleQokS9vP9XJO434Xc-6" target="ENleQokS9vP9XJO434Xc-13">
          <mxGeometry relative="1" as="geometry" />
        </mxCell>
        <mxCell id="ENleQokS9vP9XJO434Xc-6" value="&lt;b&gt;Alexandre Furtado&lt;/b&gt;&lt;br&gt;Group Manager - BizDev" style="rounded=0;whiteSpace=wrap;html=1;" vertex="1" parent="1">
          <mxGeometry x="230" y="240" width="130" height="52.5" as="geometry" />
        </mxCell>
        <mxCell id="ENleQokS9vP9XJO434Xc-20" style="edgeStyle=orthogonalEdgeStyle;rounded=0;orthogonalLoop=1;jettySize=auto;html=1;exitX=0.5;exitY=1;exitDx=0;exitDy=0;entryX=0;entryY=0.5;entryDx=0;entryDy=0;" edge="1" parent="1" source="ENleQokS9vP9XJO434Xc-8" target="ENleQokS9vP9XJO434Xc-5">
          <mxGeometry relative="1" as="geometry" />
        </mxCell>
        <mxCell id="ENleQokS9vP9XJO434Xc-8" value="&lt;b&gt;Carolina Lima&lt;/b&gt;&lt;br&gt;Team Lead - Parcerias e Inside Sales" style="rounded=0;whiteSpace=wrap;html=1;" vertex="1" parent="1">
          <mxGeometry x="140" y="350" width="130" height="55" as="geometry" />
        </mxCell>
        <mxCell id="ENleQokS9vP9XJO434Xc-21" style="edgeStyle=orthogonalEdgeStyle;rounded=0;orthogonalLoop=1;jettySize=auto;html=1;exitX=0.5;exitY=1;exitDx=0;exitDy=0;entryX=0.5;entryY=0;entryDx=0;entryDy=0;" edge="1" parent="1" source="ENleQokS9vP9XJO434Xc-13" target="ENleQokS9vP9XJO434Xc-5">
          <mxGeometry relative="1" as="geometry" />
        </mxCell>
        <mxCell id="ENleQokS9vP9XJO434Xc-13" value="&lt;b&gt;Marcelo Conforto&amp;nbsp;&lt;/b&gt;&lt;br&gt;Team Lead - Coraliados" style="rounded=0;whiteSpace=wrap;html=1;" vertex="1" parent="1">
          <mxGeometry x="330" y="350" width="130" height="55" as="geometry" />
        </mxCell>
        <mxCell id="ENleQokS9vP9XJO434Xc-24" style="edgeStyle=orthogonalEdgeStyle;rounded=0;orthogonalLoop=1;jettySize=auto;html=1;exitX=0;exitY=0.5;exitDx=0;exitDy=0;entryX=0.5;entryY=0;entryDx=0;entryDy=0;" edge="1" parent="1" source="ENleQokS9vP9XJO434Xc-23" target="ENleQokS9vP9XJO434Xc-1">
          <mxGeometry relative="1" as="geometry" />
        </mxCell>
        <mxCell id="ENleQokS9vP9XJO434Xc-25" style="edgeStyle=orthogonalEdgeStyle;rounded=0;orthogonalLoop=1;jettySize=auto;html=1;exitX=1;exitY=0.5;exitDx=0;exitDy=0;entryX=0.5;entryY=0;entryDx=0;entryDy=0;" edge="1" parent="1" source="ENleQokS9vP9XJO434Xc-23" target="ENleQokS9vP9XJO434Xc-2">
          <mxGeometry relative="1" as="geometry" />
        </mxCell>
        <mxCell id="ENleQokS9vP9XJO434Xc-23" value="&lt;b&gt;Igor Senra&amp;nbsp;&lt;/b&gt;&lt;br&gt;CEO" style="rounded=0;whiteSpace=wrap;html=1;" vertex="1" parent="1">
          <mxGeometry x="419" y="40" width="130" height="50" as="geometry" />
        </mxCell>
      </root>
    </mxGraphModel>
  </diagram>
</mxfile>
